<?xml version="1.0" encoding="UTF-8"?>
<!DOCTYPE svg PUBLIC "-//W3C//DTD SVG 1.1//EN" "http://www.w3.org/Graphics/SVG/1.1/DTD/svg11.dtd">
<svg width="153mm" height="84mm" viewBox="0 0 15300 8400" version="1.1" baseProfile="tiny" xmlns="http://www.w3.org/2000/svg" stroke-width="28.222" stroke-linejoin="round" xml:space="preserve">
 <path fill="rgb(255,255,255)" stroke="none" d="M 7664,8406 L 1,8406 1,0 15327,0 15327,8406 7664,8406 Z"/>
 <path fill="none" stroke="rgb(179,179,179)" stroke-width="102" stroke-linejoin="round" d="M 922,7375 L 922,7225"/>
 <path fill="none" stroke="rgb(179,179,179)" stroke-width="102" stroke-linejoin="round" d="M 922,7375 L 922,7225"/>
 <path fill="none" stroke="rgb(179,179,179)" stroke-width="102" stroke-linejoin="round" d="M 1928,7375 L 1928,7225"/>
 <path fill="none" stroke="rgb(179,179,179)" stroke-width="102" stroke-linejoin="round" d="M 1928,7375 L 1928,7225"/>
 <path fill="none" stroke="rgb(179,179,179)" stroke-width="102" stroke-linejoin="round" d="M 2934,7375 L 2934,7225"/>
 <path fill="none" stroke="rgb(179,179,179)" stroke-width="102" stroke-linejoin="round" d="M 2934,7375 L 2934,7225"/>
 <path fill="none" stroke="rgb(179,179,179)" stroke-width="102" stroke-linejoin="round" d="M 3941,7375 L 3941,7225"/>
 <path fill="none" stroke="rgb(179,179,179)" stroke-width="102" stroke-linejoin="round" d="M 3941,7375 L 3941,7225"/>
 <path fill="none" stroke="rgb(179,179,179)" stroke-width="102" stroke-linejoin="round" d="M 4947,7375 L 4947,7225"/>
 <path fill="none" stroke="rgb(179,179,179)" stroke-width="102" stroke-linejoin="round" d="M 4947,7375 L 4947,7225"/>
 <path fill="none" stroke="rgb(179,179,179)" stroke-width="102" stroke-linejoin="round" d="M 5954,7375 L 5954,7225"/>
 <path fill="none" stroke="rgb(179,179,179)" stroke-width="102" stroke-linejoin="round" d="M 5954,7375 L 5954,7225"/>
 <path fill="none" stroke="rgb(179,179,179)" stroke-width="102" stroke-linejoin="round" d="M 6960,7375 L 6960,7225"/>
 <path fill="none" stroke="rgb(179,179,179)" stroke-width="102" stroke-linejoin="round" d="M 6960,7375 L 6960,7225"/>
 <path fill="none" stroke="rgb(179,179,179)" stroke-width="102" stroke-linejoin="round" d="M 7966,7375 L 7966,7225"/>
 <path fill="none" stroke="rgb(179,179,179)" stroke-width="102" stroke-linejoin="round" d="M 7966,7375 L 7966,7225"/>
 <path fill="none" stroke="rgb(179,179,179)" stroke-width="102" stroke-linejoin="round" d="M 8972,7375 L 8972,7225"/>
 <path fill="none" stroke="rgb(179,179,179)" stroke-width="102" stroke-linejoin="round" d="M 8972,7375 L 8972,7225"/>
 <path fill="none" stroke="rgb(179,179,179)" stroke-width="102" stroke-linejoin="round" d="M 9978,7375 L 9978,7225"/>
 <path fill="none" stroke="rgb(179,179,179)" stroke-width="102" stroke-linejoin="round" d="M 9978,7375 L 9978,7225"/>
 <path fill="none" stroke="rgb(179,179,179)" stroke-width="102" stroke-linejoin="round" d="M 10985,7375 L 10985,7225"/>
 <path fill="none" stroke="rgb(179,179,179)" stroke-width="102" stroke-linejoin="round" d="M 10985,7375 L 10985,7225"/>
 <path fill="none" stroke="rgb(179,179,179)" stroke-width="102" stroke-linejoin="round" d="M 11991,7375 L 11991,7225"/>
 <path fill="none" stroke="rgb(179,179,179)" stroke-width="102" stroke-linejoin="round" d="M 11991,7375 L 11991,7225"/>
 <path fill="none" stroke="rgb(179,179,179)" stroke-width="102" stroke-linejoin="round" d="M 12998,7375 L 12998,7225"/>
 <path fill="none" stroke="rgb(179,179,179)" stroke-width="102" stroke-linejoin="round" d="M 12998,7375 L 12998,7225"/>
 <path fill="none" stroke="rgb(179,179,179)" stroke-width="102" stroke-linejoin="round" d="M 14004,7375 L 14004,7225"/>
 <path fill="none" stroke="rgb(179,179,179)" stroke-width="102" stroke-linejoin="round" d="M 14004,7375 L 14004,7225"/>
 <path fill="none" stroke="rgb(179,179,179)" stroke-width="102" stroke-linejoin="round" d="M 15011,7375 L 15011,7225"/>
 <path fill="none" stroke="rgb(179,179,179)" stroke-width="102" stroke-linejoin="round" d="M 15011,7375 L 15011,7225"/>
 <path fill="none" stroke="rgb(179,179,179)" stroke-width="102" stroke-linejoin="round" d="M 922,7225 L 15011,7225"/>
 <path fill="none" stroke="rgb(179,179,179)" stroke-width="102" stroke-linejoin="round" d="M 772,7225 L 922,7225"/>
 <path fill="none" stroke="rgb(179,179,179)" stroke-width="102" stroke-linejoin="round" d="M 772,7225 L 922,7225"/>
 <path fill="none" stroke="rgb(179,179,179)" stroke-width="102" stroke-linejoin="round" d="M 772,2883 L 922,2883"/>
 <path fill="none" stroke="rgb(179,179,179)" stroke-width="102" stroke-linejoin="round" d="M 772,2883 L 922,2883"/>
 <path fill="none" stroke="rgb(179,179,179)" stroke-width="102" stroke-linejoin="round" d="M 922,7225 L 922,278"/>
 <path fill="rgb(0,69,134)" stroke="none" d="M 14088,7225 L 14927,7225 14927,4619 14088,4619 14088,7225 Z"/>
 <path fill="rgb(0,69,134)" stroke="none" d="M 13082,7225 L 13920,7225 13920,2883 13082,2883 13082,7225 Z"/>
 <path fill="rgb(0,69,134)" stroke="none" d="M 12075,7225 L 12914,7225 12914,6356 12075,6356 12075,7225 Z"/>
 <path fill="rgb(0,69,134)" stroke="none" d="M 11069,7225 L 11907,7225 11907,4619 11069,4619 11069,7225 Z"/>
 <path fill="rgb(0,69,134)" stroke="none" d="M 10062,7225 L 10901,7225 10901,4619 10062,4619 10062,7225 Z"/>
 <path fill="rgb(0,69,134)" stroke="none" d="M 9056,7225 L 9894,7225 9894,1146 9056,1146 9056,7225 Z"/>
 <path fill="rgb(0,69,134)" stroke="none" d="M 8049,7225 L 8888,7225 8888,4619 8049,4619 8049,7225 Z"/>
 <path fill="rgb(0,69,134)" stroke="none" d="M 7044,7225 L 7882,7225 7882,5488 7044,5488 7044,7225 Z"/>
 <path fill="rgb(0,69,134)" stroke="none" d="M 6038,7225 L 6876,7225 6876,5488 6038,5488 6038,7225 Z"/>
 <path fill="rgb(0,69,134)" stroke="none" d="M 5031,7225 L 5870,7225 5870,5488 5031,5488 5031,7225 Z"/>
 <path fill="rgb(0,69,134)" stroke="none" d="M 4025,7225 L 4863,7225 4863,6356 4025,6356 4025,7225 Z"/>
 <path fill="rgb(0,69,134)" stroke="none" d="M 3018,7225 L 3857,7225 3857,5488 3018,5488 3018,7225 Z"/>
 <path fill="rgb(0,69,134)" stroke="none" d="M 2012,7225 L 2850,7225 2850,4619 2012,4619 2012,7225 Z"/>
 <path fill="rgb(0,69,134)" stroke="none" d="M 1005,7225 L 1844,7225 1844,5488 1005,5488 1005,7225 Z"/>
 <text class="TextShape"><tspan class="TextParagraph" font-family="Liberation Sans" font-size="529px" font-weight="400"><tspan class="TextPosition" x="1200" y="7978"><tspan fill="rgb(0,0,0)" stroke="none">.6</tspan></tspan></tspan></text>
 <text class="TextShape"><tspan class="TextParagraph" font-family="Liberation Sans" font-size="529px" font-weight="400"><tspan class="TextPosition" x="2206" y="7978"><tspan fill="rgb(0,0,0)" stroke="none">.7</tspan></tspan></tspan></text>
 <text class="TextShape"><tspan class="TextParagraph" font-family="Liberation Sans" font-size="529px" font-weight="400"><tspan class="TextPosition" x="3213" y="7978"><tspan fill="rgb(0,0,0)" stroke="none">.8</tspan></tspan></tspan></text>
 <text class="TextShape"><tspan class="TextParagraph" font-family="Liberation Sans" font-size="529px" font-weight="400"><tspan class="TextPosition" x="4219" y="7978"><tspan fill="rgb(0,0,0)" stroke="none">.9</tspan></tspan></tspan></text>
 <text class="TextShape"><tspan class="TextParagraph" font-family="Liberation Sans" font-size="529px" font-weight="400"><tspan class="TextPosition" x="4987" y="7978"><tspan fill="rgb(0,0,0)" stroke="none">10A</tspan></tspan></tspan></text>
 <text class="TextShape"><tspan class="TextParagraph" font-family="Liberation Sans" font-size="529px" font-weight="400"><tspan class="TextPosition" x="6285" y="7978"><tspan fill="rgb(0,0,0)" stroke="none">B</tspan></tspan></tspan></text>
 <text class="TextShape"><tspan class="TextParagraph" font-family="Liberation Sans" font-size="529px" font-weight="400"><tspan class="TextPosition" x="7278" y="7978"><tspan fill="rgb(0,0,0)" stroke="none">C</tspan></tspan></tspan></text>
 <text class="TextShape"><tspan class="TextParagraph" font-family="Liberation Sans" font-size="529px" font-weight="400"><tspan class="TextPosition" x="8285" y="7978"><tspan fill="rgb(0,0,0)" stroke="none">D</tspan></tspan></tspan></text>
 <text class="TextShape"><tspan class="TextParagraph" font-family="Liberation Sans" font-size="529px" font-weight="400"><tspan class="TextPosition" x="9013" y="7978"><tspan fill="rgb(0,0,0)" stroke="none">11A</tspan></tspan></tspan></text>
 <text class="TextShape"><tspan class="TextParagraph" font-family="Liberation Sans" font-size="529px" font-weight="400"><tspan class="TextPosition" x="10311" y="7978"><tspan fill="rgb(0,0,0)" stroke="none">B</tspan></tspan></tspan></text>
 <text class="TextShape"><tspan class="TextParagraph" font-family="Liberation Sans" font-size="529px" font-weight="400"><tspan class="TextPosition" x="11304" y="7978"><tspan fill="rgb(0,0,0)" stroke="none">C</tspan></tspan></tspan></text>
 <text class="TextShape"><tspan class="TextParagraph" font-family="Liberation Sans" font-size="529px" font-weight="400"><tspan class="TextPosition" x="12310" y="7978"><tspan fill="rgb(0,0,0)" stroke="none">D</tspan></tspan></tspan></text>
 <text class="TextShape"><tspan class="TextParagraph" font-family="Liberation Sans" font-size="529px" font-weight="400"><tspan class="TextPosition" x="13039" y="7978"><tspan fill="rgb(0,0,0)" stroke="none">12A</tspan></tspan></tspan></text>
 <text class="TextShape"><tspan class="TextParagraph" font-family="Liberation Sans" font-size="529px" font-weight="400"><tspan class="TextPosition" x="14336" y="7978"><tspan fill="rgb(0,0,0)" stroke="none">B</tspan></tspan></tspan></text>
 <text class="TextShape"><tspan class="TextParagraph" font-family="Liberation Sans" font-size="706px" font-weight="400"><tspan class="TextPosition" x="275" y="7477"><tspan fill="rgb(0,0,0)" stroke="none">0</tspan></tspan></tspan></text>
 <text class="TextShape"><tspan class="TextParagraph" font-family="Liberation Sans" font-size="706px" font-weight="400"><tspan class="TextPosition" x="275" y="3134"><tspan fill="rgb(0,0,0)" stroke="none">5</tspan></tspan></tspan></text>
</svg>