<?xml version="1.0" encoding="UTF-8"?>
<!DOCTYPE svg PUBLIC "-//W3C//DTD SVG 1.1//EN" "http://www.w3.org/Graphics/SVG/1.1/DTD/svg11.dtd">
<svg width="154mm" height="80mm" viewBox="0 0 15400 8000" version="1.1" baseProfile="tiny" xmlns="http://www.w3.org/2000/svg" stroke-width="28.222" stroke-linejoin="round" xml:space="preserve">
 <path fill="rgb(255,255,255)" stroke="none" d="M 7710,8031 L 1,8031 1,0 15419,0 15419,8031 7710,8031 Z"/>
 <path fill="none" stroke="rgb(179,179,179)" stroke-width="102" stroke-linejoin="round" d="M 1354,7135 L 1354,6985"/>
 <path fill="none" stroke="rgb(179,179,179)" stroke-width="102" stroke-linejoin="round" d="M 1354,7135 L 1354,6985"/>
 <path fill="none" stroke="rgb(179,179,179)" stroke-width="102" stroke-linejoin="round" d="M 2412,7135 L 2412,6985"/>
 <path fill="none" stroke="rgb(179,179,179)" stroke-width="102" stroke-linejoin="round" d="M 2412,7135 L 2412,6985"/>
 <path fill="none" stroke="rgb(179,179,179)" stroke-width="102" stroke-linejoin="round" d="M 3470,7135 L 3470,6985"/>
 <path fill="none" stroke="rgb(179,179,179)" stroke-width="102" stroke-linejoin="round" d="M 3470,7135 L 3470,6985"/>
 <path fill="none" stroke="rgb(179,179,179)" stroke-width="102" stroke-linejoin="round" d="M 4528,7135 L 4528,6985"/>
 <path fill="none" stroke="rgb(179,179,179)" stroke-width="102" stroke-linejoin="round" d="M 4528,7135 L 4528,6985"/>
 <path fill="none" stroke="rgb(179,179,179)" stroke-width="102" stroke-linejoin="round" d="M 5587,7135 L 5587,6985"/>
 <path fill="none" stroke="rgb(179,179,179)" stroke-width="102" stroke-linejoin="round" d="M 5587,7135 L 5587,6985"/>
 <path fill="none" stroke="rgb(179,179,179)" stroke-width="102" stroke-linejoin="round" d="M 6645,7135 L 6645,6985"/>
 <path fill="none" stroke="rgb(179,179,179)" stroke-width="102" stroke-linejoin="round" d="M 6645,7135 L 6645,6985"/>
 <path fill="none" stroke="rgb(179,179,179)" stroke-width="102" stroke-linejoin="round" d="M 7703,7135 L 7703,6985"/>
 <path fill="none" stroke="rgb(179,179,179)" stroke-width="102" stroke-linejoin="round" d="M 7703,7135 L 7703,6985"/>
 <path fill="none" stroke="rgb(179,179,179)" stroke-width="102" stroke-linejoin="round" d="M 8761,7135 L 8761,6985"/>
 <path fill="none" stroke="rgb(179,179,179)" stroke-width="102" stroke-linejoin="round" d="M 8761,7135 L 8761,6985"/>
 <path fill="none" stroke="rgb(179,179,179)" stroke-width="102" stroke-linejoin="round" d="M 9819,7135 L 9819,6985"/>
 <path fill="none" stroke="rgb(179,179,179)" stroke-width="102" stroke-linejoin="round" d="M 9819,7135 L 9819,6985"/>
 <path fill="none" stroke="rgb(179,179,179)" stroke-width="102" stroke-linejoin="round" d="M 10877,7135 L 10877,6985"/>
 <path fill="none" stroke="rgb(179,179,179)" stroke-width="102" stroke-linejoin="round" d="M 10877,7135 L 10877,6985"/>
 <path fill="none" stroke="rgb(179,179,179)" stroke-width="102" stroke-linejoin="round" d="M 11936,7135 L 11936,6985"/>
 <path fill="none" stroke="rgb(179,179,179)" stroke-width="102" stroke-linejoin="round" d="M 11936,7135 L 11936,6985"/>
 <path fill="none" stroke="rgb(179,179,179)" stroke-width="102" stroke-linejoin="round" d="M 12994,7135 L 12994,6985"/>
 <path fill="none" stroke="rgb(179,179,179)" stroke-width="102" stroke-linejoin="round" d="M 12994,7135 L 12994,6985"/>
 <path fill="none" stroke="rgb(179,179,179)" stroke-width="102" stroke-linejoin="round" d="M 14052,7135 L 14052,6985"/>
 <path fill="none" stroke="rgb(179,179,179)" stroke-width="102" stroke-linejoin="round" d="M 14052,7135 L 14052,6985"/>
 <path fill="none" stroke="rgb(179,179,179)" stroke-width="102" stroke-linejoin="round" d="M 15111,7135 L 15111,6985"/>
 <path fill="none" stroke="rgb(179,179,179)" stroke-width="102" stroke-linejoin="round" d="M 15111,7135 L 15111,6985"/>
 <path fill="none" stroke="rgb(179,179,179)" stroke-width="102" stroke-linejoin="round" d="M 1354,6985 L 15111,6985"/>
 <path fill="none" stroke="rgb(179,179,179)" stroke-width="102" stroke-linejoin="round" d="M 1204,6985 L 1354,6985"/>
 <path fill="none" stroke="rgb(179,179,179)" stroke-width="102" stroke-linejoin="round" d="M 1204,6985 L 1354,6985"/>
 <path fill="none" stroke="rgb(179,179,179)" stroke-width="102" stroke-linejoin="round" d="M 1204,4254 L 1354,4254"/>
 <path fill="none" stroke="rgb(179,179,179)" stroke-width="102" stroke-linejoin="round" d="M 1204,4254 L 1354,4254"/>
 <path fill="none" stroke="rgb(179,179,179)" stroke-width="102" stroke-linejoin="round" d="M 1204,1524 L 1354,1524"/>
 <path fill="none" stroke="rgb(179,179,179)" stroke-width="102" stroke-linejoin="round" d="M 1204,1524 L 1354,1524"/>
 <path fill="none" stroke="rgb(179,179,179)" stroke-width="102" stroke-linejoin="round" d="M 1354,6985 L 1354,159"/>
 <path fill="rgb(255,149,14)" stroke="none" d="M 14140,6985 L 15022,6985 15022,6711 14140,6711 14140,6985 Z"/>
 <path fill="rgb(255,149,14)" stroke="none" d="M 13082,6985 L 13964,6985 13964,5892 13082,5892 13082,6985 Z"/>
 <path fill="rgb(255,149,14)" stroke="none" d="M 12024,6985 L 12906,6985 12906,5892 12024,5892 12024,6985 Z"/>
 <path fill="rgb(255,149,14)" stroke="none" d="M 10965,6985 L 11847,6985 11847,4800 10965,4800 10965,6985 Z"/>
 <path fill="rgb(255,149,14)" stroke="none" d="M 9907,6985 L 10789,6985 10789,2889 9907,2889 9907,6985 Z"/>
 <path fill="rgb(255,149,14)" stroke="none" d="M 8849,6985 L 9731,6985 9731,3435 8849,3435 8849,6985 Z"/>
 <path fill="rgb(255,149,14)" stroke="none" d="M 7791,6985 L 8672,6985 8672,978 7791,978 7791,6985 Z"/>
 <path fill="rgb(255,149,14)" stroke="none" d="M 6733,6985 L 7615,6985 7615,2889 6733,2889 6733,6985 Z"/>
 <path fill="rgb(255,149,14)" stroke="none" d="M 5675,6985 L 6557,6985 6557,978 5675,978 5675,6985 Z"/>
 <path fill="rgb(255,149,14)" stroke="none" d="M 4617,6985 L 5499,6985 5499,1797 4617,1797 4617,6985 Z"/>
 <path fill="rgb(255,149,14)" stroke="none" d="M 3558,6985 L 4440,6985 4440,3982 3558,3982 3558,6985 Z"/>
 <path fill="rgb(255,149,14)" stroke="none" d="M 2500,6985 L 3382,6985 3382,2616 2500,2616 2500,6985 Z"/>
 <path fill="rgb(255,149,14)" stroke="none" d="M 1442,6985 L 2324,6985 2324,4800 1442,4800 1442,6985 Z"/>
 <text class="TextShape"><tspan class="TextParagraph" font-family="Liberation Sans" font-size="529px" font-weight="400"><tspan class="TextPosition" x="1367" y="7738"><tspan fill="rgb(0,0,0)" stroke="none">≤</tspan><tspan fill="rgb(0,0,0)" stroke="none">5.5</tspan></tspan></tspan></text>
 <text class="TextShape"><tspan class="TextParagraph" font-family="Liberation Sans" font-size="529px" font-weight="400"><tspan class="TextPosition" x="2716" y="7738"><tspan fill="rgb(0,0,0)" stroke="none">.6</tspan></tspan></tspan></text>
 <text class="TextShape"><tspan class="TextParagraph" font-family="Liberation Sans" font-size="529px" font-weight="400"><tspan class="TextPosition" x="3774" y="7738"><tspan fill="rgb(0,0,0)" stroke="none">.7</tspan></tspan></tspan></text>
 <text class="TextShape"><tspan class="TextParagraph" font-family="Liberation Sans" font-size="529px" font-weight="400"><tspan class="TextPosition" x="4833" y="7738"><tspan fill="rgb(0,0,0)" stroke="none">.8</tspan></tspan></tspan></text>
 <text class="TextShape"><tspan class="TextParagraph" font-family="Liberation Sans" font-size="529px" font-weight="400"><tspan class="TextPosition" x="5891" y="7738"><tspan fill="rgb(0,0,0)" stroke="none">.9</tspan></tspan></tspan></text>
 <text class="TextShape"><tspan class="TextParagraph" font-family="Liberation Sans" font-size="529px" font-weight="400"><tspan class="TextPosition" x="6711" y="7738"><tspan fill="rgb(0,0,0)" stroke="none">10A</tspan></tspan></tspan></text>
 <text class="TextShape"><tspan class="TextParagraph" font-family="Liberation Sans" font-size="529px" font-weight="400"><tspan class="TextPosition" x="8061" y="7738"><tspan fill="rgb(0,0,0)" stroke="none">B</tspan></tspan></tspan></text>
 <text class="TextShape"><tspan class="TextParagraph" font-family="Liberation Sans" font-size="529px" font-weight="400"><tspan class="TextPosition" x="9106" y="7738"><tspan fill="rgb(0,0,0)" stroke="none">C</tspan></tspan></tspan></text>
 <text class="TextShape"><tspan class="TextParagraph" font-family="Liberation Sans" font-size="529px" font-weight="400"><tspan class="TextPosition" x="10164" y="7738"><tspan fill="rgb(0,0,0)" stroke="none">D</tspan></tspan></tspan></text>
 <text class="TextShape"><tspan class="TextParagraph" font-family="Liberation Sans" font-size="529px" font-weight="400"><tspan class="TextPosition" x="10944" y="7738"><tspan fill="rgb(0,0,0)" stroke="none">11A</tspan></tspan></tspan></text>
 <text class="TextShape"><tspan class="TextParagraph" font-family="Liberation Sans" font-size="529px" font-weight="400"><tspan class="TextPosition" x="12294" y="7738"><tspan fill="rgb(0,0,0)" stroke="none">B</tspan></tspan></tspan></text>
 <text class="TextShape"><tspan class="TextParagraph" font-family="Liberation Sans" font-size="529px" font-weight="400"><tspan class="TextPosition" x="13339" y="7738"><tspan fill="rgb(0,0,0)" stroke="none">C</tspan></tspan></tspan></text>
 <text class="TextShape"><tspan class="TextParagraph" font-family="Liberation Sans" font-size="529px" font-weight="400"><tspan class="TextPosition" x="14397" y="7738"><tspan fill="rgb(0,0,0)" stroke="none">D</tspan></tspan></tspan></text>
 <text class="TextShape"><tspan class="TextParagraph" font-family="Liberation Sans" font-size="706px" font-weight="400"><tspan class="TextPosition" x="707" y="7237"><tspan fill="rgb(0,0,0)" stroke="none">0</tspan></tspan></tspan></text>
 <text class="TextShape"><tspan class="TextParagraph" font-family="Liberation Sans" font-size="706px" font-weight="400"><tspan class="TextPosition" x="310" y="4506"><tspan fill="rgb(0,0,0)" stroke="none">10</tspan></tspan></tspan></text>
 <text class="TextShape"><tspan class="TextParagraph" font-family="Liberation Sans" font-size="706px" font-weight="400"><tspan class="TextPosition" x="310" y="1775"><tspan fill="rgb(0,0,0)" stroke="none">20</tspan></tspan></tspan></text>
</svg>